<svg width="19" height="20" viewBox="0 0 19 20" fill="none" xmlns="http://www.w3.org/2000/svg">
<path fill-rule="evenodd" clip-rule="evenodd" d="M11.6841 0.474737C10.7417 0.0961311 9.72448 -0.0593942 8.712 0.0203178C7.69952 0.10003 6.7192 0.412819 5.84765 0.934236C4.97611 1.45565 4.23696 2.17157 3.68798 3.02602C3.139 3.88048 2.79508 4.85032 2.68308 5.85974L2.43108 8.12574L2.42508 8.17974C2.31228 9.16302 1.99224 10.1112 1.48608 10.9617L1.45808 11.0087L0.880081 11.9717L0.856081 12.0117C0.614082 12.4147 0.396081 12.7797 0.250081 13.0887C0.102081 13.4027 -0.0569187 13.8287 0.0200813 14.3127C0.0951946 14.7902 0.340661 15.2243 0.711082 15.5347C1.08708 15.8487 1.53308 15.9317 1.87908 15.9667C2.21908 16.0007 2.64508 16.0007 3.11408 16.0007H15.3441C15.8131 16.0007 16.2381 16.0007 16.5791 15.9667C16.9241 15.9317 17.3711 15.8487 17.7461 15.5347C18.1169 15.2244 18.3627 14.7903 18.4381 14.3127C18.5151 13.8297 18.3561 13.4027 18.2081 13.0887C18.0621 12.7787 17.8441 12.4147 17.6021 12.0117L17.5781 11.9717L17.0001 11.0087L16.9721 10.9617C16.5941 10.3267 16.319 9.63581 16.1571 8.91474C15.4799 9.04246 14.7837 9.02884 14.1121 8.87474C14.2967 9.97307 14.6836 11.0276 15.2531 11.9847L15.2851 12.0377L15.8631 13.0007C16.1361 13.4567 16.3011 13.7337 16.3991 13.9407L16.4131 13.9727L16.3781 13.9767C16.1511 13.9997 15.8281 14.0007 15.2971 14.0007H3.16108C2.63008 14.0007 2.30708 13.9997 2.07908 13.9767L2.04508 13.9727L2.05908 13.9407C2.15708 13.7337 2.32208 13.4567 2.59508 13.0007L3.17308 12.0377L3.20508 11.9847C3.85577 10.8911 4.26715 9.67199 4.41208 8.40774L4.41908 8.34774L4.67108 6.08074C4.74533 5.41115 4.96618 4.76615 5.31795 4.19159C5.66971 3.61703 6.14374 3.12703 6.70633 2.75642C7.26892 2.38582 7.90625 2.14371 8.573 2.04733C9.23976 1.95094 9.91957 2.00263 10.5641 2.19874C10.814 1.55269 11.1954 0.965618 11.6841 0.474737ZM14.2111 2.27874C13.8494 2.49253 13.5642 2.81482 13.396 3.19984C13.2278 3.58487 13.1852 4.01309 13.2741 4.42374C13.3941 4.64907 13.4957 4.88474 13.5791 5.13074C13.8164 5.47763 14.157 5.74095 14.5524 5.8833C14.9479 6.02565 15.3781 6.0398 15.7821 5.92374L15.7751 5.85974C15.6296 4.53491 15.0841 3.28581 14.2111 2.27874Z" fill="#6B7280"/>
<path d="M6.33105 15.6655C6.50205 16.6225 6.87905 17.4675 7.40305 18.0705C7.92705 18.6735 8.56905 19.0005 9.22905 19.0005C9.88905 19.0005 10.5311 18.6735 11.0551 18.0705C11.5791 17.4675 11.9551 16.6225 12.1271 15.6655" stroke="#6B7280" stroke-width="2" stroke-linecap="round"/>
<path d="M15.229 6.50098C16.6097 6.50098 17.729 5.38169 17.729 4.00098C17.729 2.62026 16.6097 1.50098 15.229 1.50098C13.8483 1.50098 12.729 2.62026 12.729 4.00098C12.729 5.38169 13.8483 6.50098 15.229 6.50098Z" fill="#DEAD25" stroke="#DEAD25"/>
</svg>
